<?xml version="1.0" encoding="utf-8"?>
<!-- Generator: Adobe Illustrator 17.0.0, SVG Export Plug-In . SVG Version: 6.00 Build 0)  -->
<!DOCTYPE svg PUBLIC "-//W3C//DTD SVG 1.0//EN" "http://www.w3.org/TR/2001/REC-SVG-20010904/DTD/svg10.dtd">
<svg version="1.0" id="Calque_1" xmlns="http://www.w3.org/2000/svg" xmlns:xlink="http://www.w3.org/1999/xlink" x="0px" y="0px"
	 width="841.89px" height="510.24px" viewBox="0 0 841.89 510.24" enable-background="new 0 0 841.89 510.24" xml:space="preserve">
<g>
	
		<ellipse fill="none" stroke="#123E9F" stroke-width="6" stroke-miterlimit="10" cx="299.541" cy="251.968" rx="94.774" ry="159.815"/>
	
		<ellipse fill="none" stroke="#123E9F" stroke-width="6" stroke-miterlimit="10" cx="295.675" cy="251.968" rx="64.892" ry="115.944"/>
	<path fill="none" stroke="#123E9F" stroke-width="6" stroke-miterlimit="10" d="M492.933,97.669
		c39.114,22.981,68.016,80.193,68.016,154.299c0,73.828-29.752,132.521-69.501,155.146"/>
	<path fill="none" stroke="#123E9F" stroke-width="6" stroke-miterlimit="10" d="M270.709,98.879
		c32.185-19.025,70.726-30.097,112.149-30.097c40.537,0,78.314,10.603,110.075,28.887"/>
	<path fill="none" stroke="#123E9F" stroke-width="6" stroke-miterlimit="10" d="M491.448,407.114
		c-31.451,17.764-68.683,28.04-108.59,28.04c-41.583,0-80.262-11.157-112.522-30.318"/>
	<path fill="none" stroke="#007F57" stroke-width="2" stroke-miterlimit="10" d="M828.193,152.957
		c-183.638,0-307.197-134.895-433.878-134.895c-161.246,0-280.27,134.895-380.024,134.895"/>
	<path fill="none" stroke="#007F57" stroke-width="2" stroke-miterlimit="10" d="M828.193,177.896
		c-193.84,0-285.102-143.963-433.878-143.963c-169.18,0-238.328,143.963-380.024,143.963"/>
	<path fill="none" stroke="#007F57" stroke-width="2" stroke-miterlimit="10" d="M828.193,233.441"/>
	<path fill="none" stroke="#007F57" stroke-width="2" stroke-miterlimit="10" d="M14.29,240.242c0,0,209.71,11.336,209.71-28.339
		c0-16.561-12.791-17.954-19.234-40.808C187.726,120.084,290.881,52.07,394.315,52.07c70.003,0,172.006,45.6,212.832,94.836
		c15.87,24.189-5.668,38.925-5.668,57.063"/>
	<path fill="none" stroke="#007F57" stroke-width="2" stroke-miterlimit="10" d="M601.479,203.968c0,15.87,0,34.007,226.714,34.007"
		/>
	<path fill="none" stroke="#007F57" stroke-width="2" stroke-miterlimit="10" d="M612.815,171.094"/>
	<path fill="none" stroke="#007F57" stroke-width="2" stroke-miterlimit="10" d="M14.29,218.704c0,0,120.158,0,164.367-28.339"/>
	<path fill="none" stroke="#007F57" stroke-width="2" stroke-miterlimit="10" d="M14.29,198.3c0,0,112.223,0,173.436-51.395"/>
	<path fill="none" stroke="#007F57" stroke-width="2" stroke-miterlimit="10" d="M828.193,218.704
		c-113.357,0-159.216-14.736-189.076-28.339"/>
	<path fill="none" stroke="#007F57" stroke-width="2" stroke-miterlimit="10" d="M828.193,198.3c-49.877,0-99.754,0-199.508-51.395"
		/>
	<path fill="none" stroke="#007F57" stroke-width="2" stroke-miterlimit="10" d="M333.957,171.094
		c-62.272-41.914,43.076-57.812,106.555-57.812s144.01,31.362,111.088,51.44"/>
	<path fill="none" stroke="#007F57" stroke-width="2" stroke-miterlimit="10" d="M348.693,211.525
		C242.188,186.313,226.678,89.1,417.778,89.1c109.371,0,234.711,56.678,148.56,114.868"/>
	<path fill="none" stroke="#007F57" stroke-width="2" stroke-miterlimit="10" d="M828.193,357.365
		c-183.638,0-307.197,134.895-433.878,134.895c-161.246,0-280.27-134.895-380.024-134.895"/>
	<path fill="none" stroke="#007F57" stroke-width="2" stroke-miterlimit="10" d="M828.193,332.427
		c-171.169,0-296.995,143.963-433.878,143.963c-169.18,0-238.328-143.963-380.024-143.963"/>
	<path fill="none" stroke="#007F57" stroke-width="2" stroke-miterlimit="10" d="M14.29,272.832
		c111.09,3.223,181.749,3.684,211.599,34.479c10.58,12.646,9.824,25.115-7.746,43.831c-20.001,21.306,69.377,112.948,176.171,107.11
		c106.794-5.838,200.676-63.845,211.699-80.471c22.671-31.74,10.958-45.721,10.958-63.858"/>
	<path fill="none" stroke="#007F57" stroke-width="2" stroke-miterlimit="10" d="M14.29,291.618c0,0,120.158,0,164.367,28.339"/>
	<path fill="none" stroke="#007F57" stroke-width="2" stroke-miterlimit="10" d="M14.29,312.022c0,0,112.223,0,173.436,51.395"/>
	<path fill="none" stroke="#007F57" stroke-width="2" stroke-miterlimit="10" d="M828.193,291.618
		c-113.357,0-159.216,14.736-189.076,28.339"/>
	<path fill="none" stroke="#007F57" stroke-width="2" stroke-miterlimit="10" d="M828.193,312.022
		c-44.209,0-99.754,0-199.508,51.395"/>
	<path fill="none" stroke="#007F57" stroke-width="2" stroke-miterlimit="10" d="M338.113,330.918
		c-68.77,39.532,38.919,59.32,102.399,59.32s144.01-31.362,111.088-51.44"/>
	<path fill="none" stroke="#007F57" stroke-width="2" stroke-miterlimit="10" d="M348.693,298.797
		c-106.505,25.212-122.015,122.425,69.085,122.425c109.371,0,234.711-56.678,148.56-114.868"/>
	<path fill="none" stroke="#007F57" stroke-width="2" stroke-miterlimit="10" d="M616.971,313.924
		c0-29.881,22.145-37.408,211.222-37.408"/>
	<line fill="none" stroke="#007F57" stroke-width="2" stroke-miterlimit="10" x1="347" y1="257" x2="178" y2="257"/>
	<line fill="none" stroke="#007F57" stroke-width="2" stroke-miterlimit="10" x1="828" y1="257" x2="669" y2="257"/>
	<line fill="none" stroke="#007F57" stroke-width="2" stroke-miterlimit="10" x1="585" y1="257" x2="570" y2="257"/>
	<line fill="none" stroke="#007F57" stroke-width="2" stroke-miterlimit="10" x1="169" y1="257" x2="150" y2="257"/>
	<line fill="none" stroke="#007F57" stroke-width="2" stroke-miterlimit="10" x1="114" y1="257" x2="14" y2="257"/>
	<line fill="none" stroke="#007F57" stroke-width="2" stroke-miterlimit="10" x1="144" y1="257" x2="125" y2="257"/>
	<line fill="none" stroke="#007F57" stroke-width="2" stroke-miterlimit="10" x1="610" y1="257" x2="594" y2="257"/>
	<line fill="none" stroke="#007F57" stroke-width="2" stroke-miterlimit="10" x1="635" y1="257" x2="619" y2="257"/>
	<polygon fill="#007F57" points="440,113.282 440,103.08 381.309,117.26 440,126.035 	"/>
	<polygon fill="#007F57" points="290,246.76 350.646,257.246 290,269.337 	"/>
	<polygon fill="#007F57" points="440,390.157 440,400.359 381.309,386.179 440,377.404 	"/>
	<polygon fill="#007F57" points="709,246.76 648.354,257.246 709,269.337 	"/>
	<polyline fill="#007F57" points="332.726,207.368 288.614,198.3 299.666,179.88 	"/>
	<polyline fill="#007F57" points="332.726,302.305 288.614,311.373 299.666,329.794 	"/>
	<polygon fill="#007F57" points="74,246.76 13.354,257.246 74,269.337 	"/>
	<polygon fill="#007F57" points="245.192,52.897 289.747,23.73 294.66,44.89 	"/>
	<path fill="#660000" d="M440.512,155c7.634,0,11.598,0,19.271,0c27.772,30,30.04,92.026,23.848,138.727
		c5.25,0.253,5.625,0.123,11.859,0.123c-4.534,23.38-33.273,50.202-35.707,52.636c6.424-15.705,2.078-39.531-8.298-52.268
		c8.139,0,10.82,0.146,13.966,0.146C471.43,255.538,466.962,189,440.512,155z"/>
</g>
<g>
</g>
<g>
</g>
<g>
</g>
<g>
</g>
<g>
</g>
<g>
</g>
</svg>
